<?xml version="1.0" encoding="UTF-8"?>
<svg xmlns="http://www.w3.org/2000/svg" viewBox="0 0 3511.61 490.31">
    <defs>
        <style>
            .cls-1 {
                fill: none;
            }
            .cls-2 {
                fill: #000;
            }
            .cls-3 {
                fill: #eeeeee;
            }
            .cls-4 {
                fill: #f8f8f8;
            }
        </style>
    </defs>
    <g class="cls-1">
        <path d="m464.24,95.95v394.36h-41.6c.97-1.05,2.25-1.95,2.86-3.19,3.35-6.81,4.12-14.03,1.6-21.16-3.79-10.71-6.63-21.61-8.51-32.8-2.26-13.45-6.47-26.34-13.07-38.25-6.52-11.76-13.86-23.06-20.71-34.64-2.75-4.65-7.28-8.56-6.53-14.78.53-4.37.98-8.76,1.54-13.13.93-7.19,2.79-14.39,2.65-21.56-.14-7.63-1.9-15.28-3.41-22.83-1.41-7.02-3.62-13.88-5.1-20.89-1.09-5.14-1.59-10.41-2.36-15.62l-.86-.22c-1.19,2.62-2.64,5.15-3.53,7.87-2.71,8.21-1.95,16.7-1.72,25.14.21,7.63.76,15.27.39,22.88-.42,8.51-1.88,16.97-2.56,25.48-1.04,13.13-4.04,25.59-11.2,36.85-4.75,7.47-6.26,15.98-7.66,24.7,5.08-.73,7.96-4.37,11.47-7.13,3.07-2.41,6.25-4.89,9.76-6.5,4.74-2.17,5.8-1.6,8.84,2.51,6.02,8.15,12.23,16.18,17.91,24.56,6.14,9.04,12.61,18.04,13.35,29.59.44,6.87-.31,13.47-5.85,18.18-4.19,3.56-8.97,6.44-13.51,9.59-4.79,3.33-8.42,7.46-9.17,13.48-.09.72.56,2.16,1.02,2.23,3.9.58,7.88,1.48,11.75,1.2,7.69-.56,15.34-1.71,22.97-2.85,1.76-.26,2.51.25,3.23,1.59,1.74,3.25,3.52,6.47,5.29,9.7H0C0,361.08,0,231.84,0,102.61c1.23,3.85,2.18,7.81,3.74,11.52,4.7,11.12,9.79,22.07,14.41,33.22,1.42,3.43,2.24,7.24,2.57,10.95.43,4.83.11,9.73.11,14.57-.16.03.12.01.37-.08,4.57-1.72,6.99-5.64,9.2-9.53,4.79-8.45,7.39-17.66,8.09-27.32.51-7.1-.67-13.77-6.27-18.97-1.41-1.3-2.83-2.76-3.7-4.44-3.06-5.87-5.94-11.83-8.77-17.82-3.56-7.53-4.06-15.4-1.99-23.41,2.66-10.26,7.77-19.09,15.93-25.95,3.55-2.99,7.4-5.58,12.66-6.34v16.83c1.78-.61,3.11-.92,4.31-1.51,3.42-1.68,4.47-5.1,5.4-8.33,1.99-6.9,5.99-12.1,12.01-15.95,4.46-2.85,8.23-6.45,10.46-12.07-2.82.76-5.44,1.2-7.84,2.17-11.37,4.58-22.71,9.24-33.99,14.03-3.53,1.5-7.18,3.06-10.19,5.36-8.14,6.25-14.83,13.97-19.21,23.26C4.31,69.16,2.4,76.01,0,82.64,0,55.1,0,27.55,0,0,55.1,0,110.19,0,165.29,0c-.53.35-1.02.8-1.59,1.04-6.59,2.81-13.53,4.07-20.65,4.45-6.22.34-12.44.68-18.71,1.03,1.28,5.93,1.86,6.47,7.43,6.78,3.36.19,6.2,1.46,8.63,3.78,2.05,1.95,4.17,3.83,6.49,5.95,2.76-2.49,5.58-4.73,8.05-7.31,5.71-5.96,12.48-8.58,20.68-7.22,2.27.38,4.56.71,6.76,1.34,7.35,2.12,14.38,1.49,21.07-2.23.73-.41,1.67-1.34,1.64-1.97-.04-.65-1.09-1.69-1.81-1.79-7.71-1.16-15.43-2.2-23.16-3.19C177.4.31,174.67.21,171.94,0c97.43,0,194.87,0,292.3,0,0,27.73,0,55.46,0,83.2-2.3-7.37-5.94-14.01-12.25-18.57-5.28-3.82-10.82-7.5-16.73-10.18-12.24-5.57-24.72-10.63-37.24-15.54-12.52-4.92-24.25-11.08-34.85-19.44-5.27-4.16-10.77-8.07-16.43-11.68-2.12-1.36-5.04-2.25-7.5-2.07-2.01.15-4.8,1.76-5.61,3.49-1.16,2.47,2.73,6.75,5.62,7.2,3.62.56,7.38.78,10.78,2.01,7.35,2.65,13.11,7.83,17.2,14.24,4.9,7.69,10.9,13.79,19.16,17.63.08.04.19.07.24.13.84,1.02,1.99,1.93,2.46,3.1,2.76,6.92,5.1,14.02,8.09,20.84,4.54,10.38,9.4,20.63,14.33,30.83,1.89,3.91,4.62,7.21,9.27,8.14,3.23-8.74,3.48-17.47,1.56-26.24-1.68-7.67-.81-15.37-1.08-23.28,4.76.21,8.07,2.3,10.74,5.55,4.01,4.88,6.01,10.72,7.8,16.64.89,2.96,1.73,5.93,2.6,8.9l.9.34c1.22-1.61,2.7-3.09,3.59-4.86.9-1.78,1.14-3.87,1.8-5.78.99-2.91,2.9-4.82,6.31-5.29,2.49,7.93,3.14,15.85,1.19,23.89-2.51,10.32-7.82,19.23-14.3,27.49-2.76,3.52-5.74,6.86-8.72,10.4-3-4.17-5.59-7.97-8.4-11.62-3.74-4.86-5.58-4.77-9.49-.14-3.98,4.71-5.2,10.49-6.53,16.23-1.78,7.69-2.59,15.79-7.79,22.19-4.25,5.23-6.67,11.15-8.29,17.56-.68,2.7-1.72,5.3-2.82,8.62-3.16-7.91-5.79-15.23-13.22-19.35-2.31,4.07-1.67,8.21-.98,12.24,1.48,8.6,4.88,16.56,8.48,24.45,2.17,4.76,5.79,7.99,10.19,10.55,1.58.92,2.58.91,2.86-1.17.53-4,1.29-7.98,1.57-12,.62-8.96,1.92-17.72,5.74-25.98,4.19-9.06,11.55-15.09,19.19-20.98,5.54-4.27,11.3-8.4,16.14-13.39,9.31-9.61,15.4-21.32,19.46-34.02,1.92-6.02,3.35-12.2,5-18.31Zm-325.83,121.22c.23.09.46.19.68.28.73-.52,1.46-1.05,2.2-1.56,5.84-3.98,11.45-8.38,17.59-11.82,5.11-2.85,10.99-2.91,16.49-1.92-6.74,4.43-13.6,8.71-20.21,13.34-11.6,8.14-13.02,21.2-4.04,32.15,6.92,8.43,15.59,14.85,23.75,21.87,4.31,3.71,8.65,7.39,11.04,12.86,3.3,7.56,3.64,15.51,3.68,23.54,0,.68-.49,1.52-1,2.04-3.75,3.83-7.65,7.52-11.35,11.39-4.62,4.83-8.57,10.14-10.75,16.58-2.95,8.71-5.73,17.5-8.98,26.1-2.81,7.43-7.24,13.76-15.05,16.77-6.18,2.39-6.22,2.27-9.7-3.17q-2.93-4.59-7.93-2.78c-5.79,2.09-5.91,2.05-8.66-3.58-.32-.66-.56-1.36-.82-2.05-3.3-8.8-4.71-18-4.79-27.29-.06-7.03.66-14.12,1.63-21.11,1.64-11.82,3.39-23.66,5.75-35.35,3.43-17.03,7.42-33.95,8.45-51.35.27-4.64.04-9.31.04-13.95-4.82.71-5.27,1.08-6.41,5.72-3.1,12.55-3.91,25.41-5.14,38.21-.2,2.09-.4,4.18-.66,6.94-4.85-5.92-6.8-12.23-7.66-18.66-1.55-11.55-2.49-23.18-3.46-34.8-.36-4.29-.06-8.63-.06-13.17,4.88,1.39,9.43,2.69,14.26,4.06,0-6.21-.92-11.76-4.88-16.33-4.29-4.95-8.76-9.78-11.06-16.06-1.18-3.21-3.63-4.44-6.75-4.87-1.34-.18-2.68-.38-4.11-.58-.2.57-.4.98-.5,1.41-2.86,12.85-2.4,25.87-1.07,38.77,1.94,18.81,4.62,37.54,6.99,56.3,1.45,11.48,2.97,22.94,4.33,34.43,1.04,8.76,2.11,17.52,2.73,26.31.81,11.38,1.1,22.8,1.8,34.19.4,6.54,2.3,12.8,5.88,18.23,5.28,8.01,13.15,11.74,22.69,12.17,13.34.59,24.92-2.98,32.7-14.54,3.27-4.86,5.64-10.32,8.56-15.43.61-1.07,1.73-2.29,2.83-2.57,3.46-.88,7.01-1.48,10.55-1.94,4.04-.53,6.99-2.84,10.06-5.21-4.96-5.7-11.87-2.51-17.7-4.5v-17.22c7.54-2,14.71-2.57,20.69,3.89,1.29,1.4,2.86,2.9,4.59,3.48,5.56,1.84,5.37,5.79,4.46,10.3-.17.83.07,1.98.57,2.65,1.22,1.61,2.7,3.02,4.08,4.51,5.13,5.53,9.17,11.68,11.89,18.8,2.85,7.48,5.95,14.9,9.49,22.08,4.99,10.12,12.29,13.25,23.02,9.95,4.63-1.42,9.12-3.54,13.38-5.88,5.9-3.25,11.53-7.13,15.68-12.52,5.83-7.56,10.07-16.08,13.49-24.99,3.47-9.03,6.86-18.09,10.35-27.12,5.01-12.98,10.55-25.77,14.98-38.95,4.63-13.76,11.76-25.69,21.79-36.11,3.14-3.26,5.62-7.25,7.97-11.16,3.01-5,3.7-10.75,4.1-16.45.24-3.42.04-6.87.04-10.3-.32-.12-.64-.24-.96-.36-1.43,2.06-3.2,3.97-4.21,6.22-2.99,6.64-7.48,11.76-13.39,16.08-7.42,5.42-14.76,11.09-20.43,18.48-1.79,2.33-3.3,4.87-4.94,7.32,1.18-6.87,2.94-13.52,4.79-20.14,2.44-8.75,5.54-17.37,3.97-26.75-.37-2.22-.97-3.57-3.58-3.81-2.02,4.66-4.22,9.23-6,13.96-2.04,5.43-3.94,10.94-5.48,16.54-5.53,20.06-8.77,40.6-12.34,61.07-2.83,16.2-6.09,32.32-9.42,48.43-2.6,12.57-8.51,23.23-18.96,31.14-4.39,3.33-8.61,6.84-14.18,8.14-.54-4.11.29-7.11,4.53-8.88,3.47-1.45,6.05-4.24,7.35-7.8-5.58-.61-11-.97-16.35-1.85-7.47-1.22-13.06-5.1-15.05-12.78-2-7.74-3.65-15.56-5.5-23.34-1.43-6.02-4.3-11.21-9.49-14.79-2.87-1.98-5.94-3.71-9.02-5.36-5.2-2.79-8.79-6.7-10.42-12.54-2.15-7.69-1.06-15.37-.3-23.02.25-2.56,1.38-5.54,3.13-7.35,5.62-5.81,11.65-11.23,17.64-16.68,5.05-4.59,10.12-9.11,13.34-15.3,1.89-3.63,2.95-7.36,2.08-11.44-.74-3.49-1.91-4.51-5.4-3.39-4.68,1.51-9.14,3.68-14.1,5.73-.99-1.61-1.99-3.83-3.54-5.59-1.3-1.47-3.24-3.38-4.87-3.35-3.62.07-7.58,6.84-6.65,10.36,1.39,5.27,5.3,8.74,8.93,12.38.43.43,1.67.53,2.25.23,2.68-1.36,5.38-2.74,7.84-4.43,2.79-1.92,4.95-4.79,9.25-5.77-7,8.36-13.63,16.02-22.63,21.08-2.53,1.42-5.48,2.08-8.24,3.1,0-4.48-.04-8.24,0-12,.08-6.14-2.28-10.87-8-14.03-5.76,6.45-7.02,15-10.17,22.59-8.2-1.67-18.28-9.02-22.78-16.74,1.34.53,2.31,1,3.33,1.3,3.96,1.15,7.89,2.46,11.92,3.31,3.31.7,5.83-.79,7.52-3.82,2.49-4.49.51-8.71-.36-13.08-.64-3.19-2.29-4.66-5.42-4.14-1.33.22-2.81.75-3.77,1.63-1.55,1.41-2.59,3.37-4.11,4.81-.79.75-2.41,1.53-3.23,1.21-3.01-1.18-6.12-2.46-8.68-4.38-3.21-2.41-3.03-4.17-.6-7.41,3.78-5.02,9.08-7.6,14.83-9.59,8.9-3.08,17.99-4.86,27.41-3.93,10.09,1,19.26,4.7,27.75,10.19,3.38,2.19,6.91,4.16,11.26,4.35-.45-4.03-2.36-7.09-4.92-9.83-7.02-7.53-15.93-12.18-25.17-16.19-6.83-2.96-13.92-5.34-21.12-8.07,1.05-4.42,2.04-8.99,3.24-13.51.51-1.93-.13-2.98-1.92-3.07-2.91-.14-6.02-.62-8.72.16-19.35,5.56-33.5,16.95-39.85,36.69-.41,1.27-.45,2.67-.66,4ZM224.63,12.55c1.97.98,3.72,1.51,5.02,2.57,3.49,2.86,6.82,5.92,10.15,8.96,3.21,2.92,6.49,5.67,11.19,6.44.39-5.08.77-9.98,1.15-15.01,7.87.11,12.89,6.57,19.91,8.13.18-.27.37-.47.47-.72.89-2.13,1.79-4.25,2.65-6.39,1.57-3.9,3.41-4.82,7.32-3.08,1.7.76,3.31,2.04,4.54,3.45,1.94,2.2,3.46,4.77,5.27,7.08,1.55,1.97,3.27,3.81,4.91,5.71.26-.21.53-.42.79-.64.19-4.37.39-8.73.61-13.76,2.31.92,4.35,1.43,6.07,2.48,4.42,2.68,6.07,7.34,7.52,11.89,2.33,7.32,5.99,13.3,13.15,16.93,3.41,1.73,6.41,4.31,9.51,6.6,11.81,8.72,20.74,19.63,24.83,33.95,1.78,6.26,3.55,12.64.82,19.16-2.06,4.93-4.23,9.82-6.04,14.84-.71,1.98-.77,4.26-.78,6.41-.02,4.24,1.62,8.7-1.09,12.59-1.83,2.62-4.24,4.83-6.26,7.32-1.22,1.5-2.19,3.2-3.67,5.4,6.45-.61,11.98-1.13,17.65-1.66.23.97.56,1.75.57,2.54.09,5.59.32,11.19.13,16.78-.39,11.3-1.13,22.58-1.48,33.88-.09,2.85.77,5.74,1.19,8.6.43.02.85.04,1.28.06,1.75-5.69,3.97-11.28,5.17-17.08,3.58-17.28,6.53-34.69,10.16-51.95,3.22-15.33,2.99-30.31-2.63-45.05-5.35-14.03-10.59-28.1-16.14-42.04-3.1-7.79-7.67-14.65-14.6-19.71-5.72-4.18-11.58-8.24-16.92-12.87-3.23-2.8-5.61-6.58-8.48-10.06,3.62-2.05,6.53-3.7,9.53-5.4-4.56-3.8-9.01-4.4-14.18-2.23-2.61,1.1-5.75,1.52-8.59,1.33-3.82-.25-7.68-1.08-11.35-2.21-7.82-2.41-15.79-2.45-23.75-1.66-10.69,1.07-21.26.99-31.91-.61-7.15-1.07-14.35-.91-21.23,1.93-2.11.87-3.3,2.11-3.66,4.62-1.15,8.05-1.86,16.26-7.4,22.99-1.23,1.5-2.3,2.4-4.06,1.95-2.48-.64-4.93-1.48-7.33-2.39-3.87-1.47-7.73-1.73-10.95,1.11-3.5,3.09-7.31,6.17-9.76,10.04-5.94,9.36-6.19,16.31,3.34,23.47,3.53-4.18,7.18-8.3,10.57-12.62,1.36-1.73,2.67-2.05,4.72-1.67,5.29.99,10.62,1.75,15.97,2.6,1.9-6.16,1.37-12.96,6.95-17.21,3.74,2.6,4.63,3.71,5.79,7.3,1.79,5.54.6,10.91-1.18,16.16-3.06,8.98-6.34,17.87-9.42,26.84-2.14,6.24-2.42,12.75-2.65,19.28,6.32.3,10.15-3.39,13.63-7.57,3.2-3.85,6.89-6.96,11.78-8.33,5.4-1.52,10.83-2.94,16.26-4.37,2.69-.71,5.41-1.34,8.52-2.1-.69-.48-.88-.66-1.1-.77-5.31-2.63-10.83-1.49-16.27-.76-6.33.86-12.62,2.01-18.86,3.03-2.37-6.65.83-12.05,7.4-12.19,4.89-.1,9.8.76,14.7,1.21,1.05.1,2.1.26,3.22.4.21-3.98-.51-6.97-4.59-8.21-3.73-1.14-7.37-2.57-11.22-3.92.51-2.18,1.11-4.75,1.88-8.02,4.07,2.01,8.11,3.75,11.88,5.94,7.47,4.33,14.05,10.3,22.74,12.32,2.77.65,5.65.84,8.53,1.25-.32-7.39-3.12-13.17-8.1-17.57-6.82-6.01-13.03-12.49-18.32-19.88-1.37-1.91-2.92-3.88-4.82-5.19-2.63-1.82-5.55-3.36-8.55-4.45-7.37-2.68-10.64-8.3-12.1-16.22Zm95.29,135.68c-1.73-5.58-3.1-10.71-4.92-15.68-4.36-11.92-10.31-22.88-20.54-30.89-5.56-4.36-11.88-6.44-19.81-5.14,2.23,5.16,4.31,9.97,6.51,15.06-5.55,1.29-10.9,2.58-16.29,3.7-.56.12-1.62-.64-1.95-1.26-1.42-2.64-2.66-5.38-3.96-8.09-4.33,1.95-6.51,4.91-7,9.46-.5,4.69-3.17,7.95-7.58,10.06-2.63,1.26-3.9.47-5.09-1.62-.32-.55-.61-1.14-.78-1.75-1.18-4.29.24-8.17,2.03-11.95,1.6-3.38,3.31-6.7,4.97-10.05-.14-.21-.28-.42-.43-.62-2.31.99-4.86,1.63-6.87,3.04-4.22,2.95-8.19,6.27-12.16,9.55-.5.41-.65,1.59-.54,2.36.92,6.3,1.94,12.59,2.99,19.31-1.52-1.32-2.72-2.31-3.86-3.36-3.94-3.64-8.26-6.61-13.85-6.71-2.1-.04-2.55-.98-2.89-2.75-1.33-7.05-2.85-14.06-4.24-21.1-1.23-6.23-2.15-12.44-1.46-18.89.44-4.06-.23-8.24-.46-12.36-.09-1.59-1.11-1.77-2.57-2.09-5.16-1.14-9.35,1.27-13.67,3.23-1.67.76-3.15,1.93-4.79,2.95,3.71,4.05,7.04,7.69,10.38,11.33-4.72-1.67-9.26-3.63-13.69-5.82-11.71-5.79-22.51-3.53-32.79,3.55-.69.47-1.27,1.1-2.64,2.31,5.45,1.59,10.06,3.14,14.78,4.26,7.51,1.78,15.2,2.88,22.59,5.02,5.53,1.6,9.77,5.32,11.86,11.08,2,5.51,1.57,11.01.39,16.55-.72,3.37-2.34,6.21-5.29,8.11-4.5,2.9-8.11,6.58-10.73,11.29-1.58,2.85-4.1,4.62-7.47,5.13-4.09.62-8.15,1.43-12.22,2.18-4.49.82-7.93,2.93-9.23,7.62-1.6,5.79-4.92,10.67-8.09,15.65-2.12,3.34-4.22,6.72-5.97,10.26-2.11,4.26-2.57,8.8-.94,13.56,2.73-2.86,5.18-5.81,7.44-8.89,3.63-4.95,6.04-10.88,11.56-14.28,6.91-4.25,13.81-8.5,20.77-12.66,8.14-4.86,15.83-10.15,20.6-18.74.76-1.37,2.08-2.43,3.27-3.78,2.5,5.17,4.71,9.94,7.1,14.62,2.88,5.65,7.74,8.78,14.14,10.63-2.15-8.69-4.2-16.96-6.25-25.23,2.43,1.72,4.25,3.77,6.11,5.78,2.74,2.97,5.12,6.44,8.32,8.77,10.89,7.91,22.08,15.42,33.15,23.08,2.76,1.91,5.53,3.8,8.59,5.9-.51-4.69-2.8-7.98-5.42-11.11-3.31-3.95-6.88-7.72-9.82-11.93-2.88-4.11-2.56-9.63,1.32-13.35,4.21-4.04,9.4-7.21,11.96-12.84.87-1.92,2.25-3.6,3.23-5.47,1.03-1.97,2.67-2.9,4.74-2.67,6.82.74,13.67,1.35,20.42,2.54,5.74,1.01,9.84,4.68,12.87,9.64,1.73,2.83,3.67,5.53,5.67,8.18,1.95,2.6,4.4,4.57,8.49,5.32ZM115.88,6.67c-2.71-.42-5.13-1.17-7.52-1.06-3.59.17-7.34-1.79-10.78.68-4.02,2.9-8.04,5.78-12.08,8.65-1.76,1.25-1.42,2.7-.19,3.93,1.42,1.43,3.21,2.5,4.6,3.95.55.58.96,2.03.62,2.61-1.86,3.16-3.6,6.5-6.05,9.18-11.84,12.98-22.3,26.98-31.78,41.74-6.23,9.69-10.3,20.1-10.47,31.81-.16,10.88-.14,21.78-.73,32.64-.38,7.07-1.58,14.1-6.37,19.91-2.64,3.19-5.21,6.45-7.58,9.85-4.24,6.09-9.29,11.74-10.68,19.44-1.1,6.11,4.66,11.99,10.02,9.74,2.96-1.24,5.97-3.16,8.04-5.56,5.28-6.11,7.95-13.66,9.93-21.37,2.95-11.5,5.6-23.07,8.43-34.6.31-1.27.96-2.45,1.67-4.21,4.43,4.41,8.42,8.38,12.4,12.34.28-.11.57-.22.85-.33,0-3.12-.08-6.24.02-9.36.15-4.97.16-9.97.68-14.9,1.09-10.22,2.55-20.41,3.74-30.62,1.55-13.25,5.8-25.43,13.87-36.18,5.46-7.27,12.05-13.38,18.98-19.22,2.35-1.98,4.57-4.84,5.44-7.73,2.06-6.84,3.28-13.93,4.94-21.33Zm77.24,445.67c1.57-2.64,3.61-5.15,4.65-8.01,3.06-8.39,3.05-17.24,2.29-25.95-1.05-12-3.42-23.9-2.55-36.02.54-7.48-2.19-14.32-3.9-21.36-.16-.67-1.91-1.69-2.3-1.47-3.23,1.85-7.02,3.31-7.76,7.64-.66,3.89-1.27,7.8-1.68,11.72-.71,6.73-3.59,12.01-9.95,14.8-5.87,2.57-12.06,3.95-18.51,4.11-2.49.06-4.98.34-7.72.54,8.77,13.77,20.78,21.73,36.61,23.67,2.01.25,2.52,1,2.58,2.96.18,5.97.29,11.98,1.08,17.89.53,4,2.17,7.84,7.15,9.47Zm83.96-114.09c7.18-.12,13.16-5.19,14.57-13.57,1.85-10.94,3.42-21.97,4.34-33.02.73-8.79.65-17.68.3-26.5-.4-10-1.2-20.01-2.39-29.94-1.53-12.8-4.67-25.16-12.83-35.64-.5-.64-1.09-1.2-2.16-2.37,1.11,7.24,2.4,13.54,2.96,19.91.56,6.38.77,12.85.4,19.24-.25,4.31-1.62,6.08-6.23,4.64-1.28-.4-2.67-.41-4.1-.61-.39,5.17-.85,10.21-1.12,15.25-.35,6.5.15,12.81,3.06,18.88,3.22,6.72,6.04,13.64,8.85,20.55,2.72,6.71,3.64,13.61,1.37,20.71-2.38,7.44-4.66,14.9-7.01,22.47Zm-202.92,139.64c0-3.13.09-5.83-.02-8.53-.33-8.06-.95-16.12-1.06-24.18-.15-11.04,2.79-21.45,7.01-31.58,5.52-13.26,11.18-26.47,16.14-39.93,3.56-9.66,4.99-19.81,2.52-30.1-.23-.94-1.28-1.69-1.95-2.52-.72.74-1.76,1.36-2.11,2.25-2.93,7.35-5.8,14.72-8.55,22.13-5.38,14.5-10.71,29.02-15.99,43.56-3.9,10.72-7.79,21.45-11.49,32.24-2.11,6.16-4.44,12.34-5.56,18.71-1.12,6.34.59,11.32,6.73,13.52,4.49,1.6,9.1,2.84,14.31,4.44ZM142.06,103.3c7.41,3.88,16.37,4.11,23.49,10.48-11.4,3.7-22.23,6.15-33.63,4.36-3.13-.49-4.37-2.74-4.71-5.65-.12-1.06-.26-2.11-.47-3.78-9.09,4-17.95,7.42-25.43,13.39-4.62,3.69-8.13,8.39-10,14.24,2.01-.92,3.88-1.99,5.66-3.19,3.79-2.58,7.25-5.84,11.35-7.7,6.39-2.88,12.7-.58,18.56,2.37,4.67,2.35,9.42,3.96,14.68,4.27,6.39.38,12.46,1.71,17.63,6.09,1.78,1.5,4.49,1.97,6.85,2.67.6.18,1.8-.3,2.17-.85,7.56-11.4,11.48-23.99,11.88-37.64.02-.84-.98-2.32-1.72-2.46-6.2-1.25-12.43-2.91-18.69-3.13-4.64-.16-9.32,1.74-14.02,2.54-2.27.39-3.43,1.49-3.59,4Zm69.19,264.1c0,6.28.21,12.24-.05,18.18-.4,8.96-1.47,17.91-1.6,26.87-.08,5.86,1.52,11.57,6.17,15.75,5.9,5.31,12.74,7.62,20.78,6.84,9.86-.96,17.09-5.25,20.95-15.51-3.06-.99-6.08-2.33-9.23-2.9-6.27-1.13-9.84-4.43-10.5-10.91-.55-5.42-3.39-9.53-7.71-12.84-2.15-1.65-4.35-3.61-5.66-5.92-2.11-3.72-3.51-7.85-5.2-11.81-1.51-3.56-3.39-6.73-7.96-7.75Zm-118.56-94.03c.33-.17.67-.34,1-.52-2.1-6.73-3.68-13.68-6.39-20.16-9.21-22.1-13.01-44.99-10.78-68.79,1.21-12.88,4.53-25.06,14.79-34.57-1.77-1.45-3.31-2.89-5.02-4.07-3.22-2.21-4.74-5.14-4.82-9.07-.07-3.29-.67-6.57-.87-9.87-.12-2.07-1.17-2.67-3.29-2.53-.43,2.04-1.05,4.07-1.24,6.14-.77,8.42-1.35,16.83-5.04,24.7-3.81,8.13-5.45,16.76-4.94,25.78.15,2.57-.17,5.16-.15,7.74.03,4.98-.23,10.01.33,14.94.73,6.38,2.19,12.67,3.26,19.01,2.41,14.33,6,28.27,13.22,41.05,2.43,4.3,5.08,8.33,9.94,10.2Zm-11.1-186.52c1.82-2.38,3.72-4.7,5.44-7.14,2.49-3.54,4.54-7.43,7.32-10.71,9.26-10.92,20.56-19.46,32.5-27.24,2.83-1.84,5.58-4.01,7.76-6.55,1.5-1.74,3.06-4.61,2.66-6.59-1.27-6.28-10.26-9.26-15.23-5.29-2.86,2.29-5.53,4.89-7.91,7.68-7.46,8.76-14.65,17.74-22.1,26.5-7.12,8.38-11.26,17.8-10.45,29.33Zm114.88,97.68c1.08,3.84,3.06,6.5,6.92,7.24,2.42.47,4.89.94,7.34.96,2.03.02,3.32.39,3.75,2.57,1.04,5.27,4.73,7.44,9.65,8.49,6.47,1.38,12.9,2.97,19.25,4.81,1.63.47,3.38,1.93,4.23,3.42,3.25,5.66,7.67,9.96,13.77,13.36-.26-.86-.36-1.27-.51-1.66-4.32-11.15-11.32-20.44-20.11-28.36-6.81-6.13-14.27-11.43-23.36-13.68-3.43-.85-7.16-1.58-10.58-1.1-3.52.5-6.83,2.53-10.36,3.94Zm96.83-19.8c1.72,0,2.92-.02,4.12,0,2.34.04,3.49-1.04,4.03-3.4,1.16-5.11,2.58-10.16,4.01-15.2.43-1.53.18-2.5-1.12-3.51-4.69-3.69-9.26-7.55-13.95-11.24-.65-.51-1.83-.77-2.62-.58-6.08,1.46-12.1,3.17-18.2,4.56-2.3.53-3.07,1.72-3.24,3.89-.42,5.49-1.03,10.96-1.44,16.45-.05.65.52,1.77,1.07,1.99,8.97,3.6,17.86,7.54,27.33,7.04Zm-172.35-1.51c1.55-.19,3.14-.21,4.64-.6,8.33-2.15,15.05-6.4,18.43-14.72.31-.77.33-2.12-.14-2.67-2.55-3.02-5.06-6.15-8.04-8.72-5.41-4.67-11.53-6.53-18.65-3.78-3.46,1.34-7.15,2.09-10.72,3.15-.5.15-.99.45-1.4.78-2.86,2.29-4.95,4.76-2.85,8.77,1.14,2.19,1.65,4.7,2.8,6.89,3.35,6.41,8.08,10.93,15.94,10.91Z"/>
    </g>
    <g class="cls-2">
        <path d="m295.54,143.22c-3.89,5.21-10.25,5.59-15.81,8.31,5.03,3.83,11.69,1.58,16.69,5.06-7.18,4.56-12.94,4.32-19.31-.59-.95-.73-1.86-1.53-2.89-2.13-2.1-1.21-3.1-2.66-1.96-5.15,1.11-2.44,2.17-4.61,5.47-4.48,3.94.16,7.88.04,12.09.04-.55-1.17-1.16-2.46-1.81-3.84-.91.18-1.7.34-2.75.55-.24-1.38-.46-2.69-.73-4.29,4.38,1.27,8.55,2.32,11.02,6.52Z"/>
        <path d="m115.33,140.74c.91-.66,1.48-1.08,2.35-1.71,1.69,6.16,6.92,4.56,11.36,5.34-1.12-2.25-2.13-4.28-3.3-6.63,4.35.37,7.86,4.56,9.88,11.08-3.94,3.98-8.55,6.8-14.25,7.57-4.69.63-6.35-.25-8.82-4.74,5.25-2.25,10.37-.49,15.5.43.16-.25.33-.51.49-.76-4.26-3.42-8.53-6.84-13.2-10.58Z"/>
    </g>
    <g class="cls-3">
        <path d="m464.24,95.95c-1.65,6.11-3.07,12.29-5,18.31-4.06,12.7-10.15,24.41-19.46,34.02-4.84,4.99-10.6,9.12-16.14,13.39-7.64,5.89-15,11.92-19.19,20.98-3.82,8.27-5.11,17.02-5.74,25.98-.28,4.02-1.04,8-1.57,12-.28,2.08-1.28,2.09-2.86,1.17-4.4-2.56-8.02-5.79-10.19-10.55-3.6-7.89-7-15.85-8.48-24.45-.69-4.03-1.33-8.17.98-12.24,7.43,4.12,10.06,11.45,13.22,19.35,1.1-3.31,2.13-5.92,2.82-8.62,1.62-6.41,4.04-12.34,8.29-17.56,5.2-6.4,6.02-14.5,7.79-22.19,1.33-5.74,2.55-11.52,6.53-16.23,3.91-4.64,5.74-4.72,9.49.14,2.81,3.64,5.4,7.45,8.4,11.62,2.98-3.54,5.96-6.88,8.72-10.4,6.48-8.26,11.78-17.17,14.3-27.49,1.96-8.04,1.31-15.96-1.19-23.89-3.42.46-5.32,2.38-6.31,5.29-.65,1.91-.9,4-1.8,5.78-.89,1.77-2.37,3.26-3.59,4.86l-.9-.34c-.86-2.97-1.71-5.94-2.6-8.9-1.79-5.93-3.79-11.77-7.8-16.64-2.66-3.24-5.97-5.34-10.74-5.55.27,7.9-.59,15.6,1.08,23.28,1.92,8.78,1.67,17.5-1.56,26.24-4.65-.94-7.38-4.23-9.27-8.14-4.93-10.21-9.78-20.45-14.33-30.83-2.98-6.82-5.32-13.92-8.09-20.84-.47-1.18-1.62-2.08-2.46-3.1-.05-.07-.16-.09-.24-.13-8.26-3.84-14.26-9.93-19.16-17.63-4.09-6.41-9.85-11.59-17.2-14.24-3.39-1.22-7.16-1.44-10.78-2.01-2.88-.45-6.78-4.73-5.62-7.2.81-1.73,3.6-3.35,5.61-3.49,2.46-.18,5.37.71,7.5,2.07,5.66,3.61,11.16,7.52,16.43,11.68,10.6,8.36,22.33,14.53,34.85,19.44,12.52,4.91,25,9.97,37.24,15.54,5.91,2.69,11.45,6.36,16.73,10.18,6.3,4.56,9.94,11.21,12.25,18.57,0,4.25,0,8.5,0,12.76Z"/>
        <path d="m421.53,490.31c-1.77-3.23-3.56-6.45-5.29-9.7-.72-1.35-1.47-1.86-3.23-1.59-7.63,1.15-15.28,2.29-22.97,2.85-3.87.28-7.85-.62-11.75-1.2-.46-.07-1.11-1.51-1.02-2.23.75-6.02,4.37-10.16,9.17-13.48,4.54-3.15,9.32-6.02,13.51-9.59,5.54-4.71,6.3-11.31,5.85-18.18-.74-11.55-7.21-20.54-13.35-29.59-5.69-8.38-11.89-16.41-17.91-24.56-3.04-4.11-4.1-4.68-8.84-2.51-3.52,1.61-6.69,4.08-9.76,6.5-3.5,2.75-6.39,6.4-11.47,7.13,1.4-8.72,2.9-17.23,7.66-24.7,7.17-11.26,10.16-23.72,11.2-36.85.67-8.51,2.14-16.97,2.56-25.48.37-7.6-.17-15.25-.39-22.88-.24-8.44-.99-16.93,1.72-25.14.9-2.72,2.34-5.25,3.53-7.87l.86.22c.76,5.21,1.26,10.48,2.36,15.62,1.49,7.01,3.7,13.87,5.1,20.89,1.51,7.55,3.27,15.19,3.41,22.83.13,7.17-1.72,14.36-2.65,21.56-.57,4.37-1.02,8.75-1.54,13.13-.75,6.22,3.78,10.13,6.53,14.78,6.85,11.58,14.19,22.88,20.71,34.64,6.6,11.9,10.81,24.8,13.07,38.25,1.88,11.19,4.73,22.09,8.51,32.8,2.52,7.13,1.76,14.35-1.6,21.16-.61,1.23-1.89,2.13-2.86,3.19h-1.11Z"/>
        <path d="m0,82.64c2.4-6.63,4.31-13.49,7.3-19.84,4.38-9.29,11.06-17.02,19.21-23.26,3-2.3,6.66-3.86,10.19-5.36,11.28-4.79,22.62-9.45,33.99-14.03,2.4-.97,5.01-1.4,7.84-2.17-2.22,5.61-5.99,9.21-10.46,12.07-6.03,3.85-10.02,9.05-12.01,15.95-.93,3.23-1.98,6.65-5.4,8.33-1.19.59-2.52.9-4.31,1.51v-16.83c-5.26.76-9.11,3.36-12.66,6.34-8.16,6.87-13.27,15.69-15.93,25.95-2.08,8.01-1.57,15.87,1.99,23.41,2.83,5.99,5.71,11.95,8.77,17.82.87,1.67,2.3,3.13,3.7,4.44,5.6,5.19,6.78,11.87,6.27,18.97-.7,9.66-3.29,18.87-8.09,27.32-2.21,3.9-4.63,7.81-9.2,9.53-.25.09-.52.11-.37.08,0-4.84.33-9.74-.11-14.57-.33-3.71-1.15-7.52-2.57-10.95-4.62-11.15-9.71-22.1-14.41-33.22C2.18,110.42,1.23,106.46,0,102.61c0-6.66,0-13.31,0-19.97Z"/>
        <path d="m171.94,0c2.72.21,5.46.31,8.17.66,7.73.99,15.45,2.03,23.16,3.19.72.11,1.77,1.14,1.81,1.79.04.63-.9,1.56-1.64,1.97-6.69,3.73-13.72,4.35-21.07,2.23-2.2-.63-4.49-.97-6.76-1.34-8.2-1.36-14.97,1.26-20.68,7.22-2.47,2.58-5.29,4.82-8.05,7.31-2.32-2.12-4.44-4-6.49-5.95-2.43-2.31-5.27-3.59-8.63-3.78-5.57-.31-6.16-.85-7.43-6.78,6.27-.35,12.49-.69,18.71-1.03,7.12-.38,14.06-1.64,20.65-4.45C164.27.8,164.76.35,165.29,0c2.22,0,4.44,0,6.66,0Z"/>
        <path d="m138.41,217.17c.21-1.34.25-2.73.66-4,6.36-19.74,20.51-31.13,39.85-36.69,2.7-.78,5.81-.3,8.72-.16,1.79.09,2.43,1.14,1.92,3.07-1.2,4.52-2.19,9.09-3.24,13.51,7.2,2.72,14.28,5.1,21.12,8.07,9.24,4.01,18.15,8.66,25.17,16.19,2.56,2.74,4.47,5.8,4.92,9.83-4.35-.19-7.88-2.17-11.26-4.35-8.5-5.49-17.66-9.19-27.75-10.19-9.42-.94-18.51.85-27.41,3.93-5.75,1.99-11.05,4.56-14.83,9.59-2.44,3.23-2.61,5,.6,7.41,2.56,1.92,5.67,3.2,8.68,4.38.82.32,2.43-.46,3.23-1.21,1.52-1.44,2.56-3.4,4.11-4.81.96-.88,2.45-1.41,3.77-1.63,3.13-.51,4.78.96,5.42,4.14.87,4.37,2.85,8.59.36,13.08-1.69,3.04-4.21,4.52-7.52,3.82-4.03-.85-7.96-2.15-11.92-3.31-1.02-.3-1.99-.77-3.33-1.3,4.5,7.72,14.58,15.07,22.78,16.74,3.15-7.59,4.4-16.14,10.17-22.59,5.72,3.15,8.08,7.89,8,14.03-.05,3.76,0,7.52,0,12,2.76-1.01,5.71-1.68,8.24-3.1,9-5.06,15.64-12.72,22.63-21.08-4.3.99-6.47,3.85-9.25,5.77-2.47,1.7-5.16,3.08-7.84,4.43-.59.3-1.83.19-2.25-.23-3.63-3.64-7.54-7.11-8.93-12.38-.93-3.52,3.04-10.29,6.65-10.36,1.62-.03,3.57,1.88,4.87,3.35,1.54,1.75,2.55,3.98,3.54,5.59,4.95-2.05,9.42-4.22,14.1-5.73,3.49-1.13,4.66-.1,5.4,3.39.87,4.09-.19,7.82-2.08,11.44-3.23,6.19-8.3,10.71-13.34,15.3-5.99,5.45-12.02,10.87-17.64,16.68-1.75,1.81-2.87,4.79-3.13,7.35-.76,7.65-1.85,15.34.3,23.02,1.63,5.84,5.23,9.76,10.42,12.54,3.08,1.65,6.15,3.38,9.02,5.36,5.18,3.58,8.05,8.76,9.49,14.79,1.85,7.78,3.5,15.6,5.5,23.34,1.99,7.68,7.58,11.56,15.05,12.78,5.34.87,10.77,1.24,16.35,1.85-1.31,3.56-3.88,6.35-7.35,7.8-4.24,1.77-5.07,4.77-4.53,8.88,5.56-1.3,9.78-4.82,14.18-8.14,10.45-7.91,16.36-18.57,18.96-31.14,3.33-16.1,6.59-32.23,9.42-48.43,3.57-20.47,6.82-41,12.34-61.07,1.54-5.59,3.44-11.1,5.48-16.54,1.78-4.73,3.98-9.31,6-13.96,2.61.24,3.21,1.6,3.58,3.81,1.56,9.39-1.53,18-3.97,26.75-1.85,6.63-3.61,13.28-4.79,20.14,1.64-2.44,3.15-4.99,4.94-7.32,5.67-7.4,13.01-13.06,20.43-18.48,5.91-4.32,10.4-9.44,13.39-16.08,1.01-2.25,2.79-4.15,4.21-6.22.32.12.64.24.96.36,0,3.43.19,6.88-.04,10.3-.39,5.71-1.09,11.45-4.1,16.45-2.36,3.91-4.83,7.9-7.97,11.16-10.03,10.42-17.16,22.35-21.79,36.11-4.43,13.17-9.97,25.97-14.98,38.95-3.48,9.03-6.88,18.09-10.35,27.12-3.42,8.91-7.67,17.42-13.49,24.99-4.15,5.38-9.77,9.27-15.68,12.52-4.26,2.34-8.75,4.46-13.38,5.88-10.73,3.3-18.03.17-23.02-9.95-3.54-7.18-6.63-14.6-9.49-22.08-2.72-7.12-6.75-13.27-11.89-18.8-1.38-1.49-2.86-2.9-4.08-4.51-.5-.66-.74-1.82-.57-2.65.91-4.51,1.1-8.46-4.46-10.3-1.73-.57-3.29-2.08-4.59-3.48-5.98-6.46-13.15-5.9-20.69-3.89v17.22c5.83,1.99,12.74-1.19,17.7,4.5-3.07,2.37-6.02,4.69-10.06,5.21-3.55.46-7.09,1.06-10.55,1.94-1.1.28-2.22,1.5-2.83,2.57-2.92,5.11-5.29,10.57-8.56,15.43-7.78,11.57-19.36,15.14-32.7,14.54-9.54-.42-17.41-4.16-22.69-12.17-3.58-5.43-5.48-11.7-5.88-18.23-.7-11.39-.99-22.81-1.8-34.19-.63-8.79-1.7-17.55-2.73-26.31-1.36-11.49-2.88-22.95-4.33-34.43-2.37-18.76-5.05-37.5-6.99-56.3-1.33-12.9-1.8-25.92,1.07-38.77.1-.43.29-.84.5-1.41,1.42.2,2.76.4,4.11.58,3.11.42,5.57,1.65,6.75,4.87,2.31,6.29,6.78,11.11,11.06,16.06,3.96,4.57,4.89,10.12,4.88,16.33-4.83-1.38-9.38-2.67-14.26-4.06,0,4.54-.3,8.88.06,13.17.96,11.62,1.9,23.25,3.46,34.8.86,6.43,2.82,12.75,7.66,18.66.26-2.75.46-4.85.66-6.94,1.23-12.8,2.05-25.66,5.14-38.21,1.14-4.64,1.59-5.01,6.41-5.72,0,4.63.23,9.3-.04,13.95-1.03,17.4-5.02,34.32-8.45,51.35-2.36,11.7-4.11,23.53-5.75,35.35-.97,6.98-1.69,14.07-1.63,21.11.08,9.29,1.49,18.49,4.79,27.29.26.69.5,1.39.82,2.05,2.75,5.62,2.87,5.67,8.66,3.58q5-1.81,7.93,2.78c3.47,5.44,3.52,5.55,9.7,3.17,7.81-3.02,12.24-9.34,15.05-16.77,3.25-8.6,6.02-17.39,8.98-26.1,2.18-6.44,6.13-11.74,10.75-16.58,3.7-3.88,7.6-7.57,11.35-11.39.51-.52,1-1.35,1-2.04-.04-8.02-.38-15.98-3.68-23.54-2.39-5.47-6.73-9.15-11.04-12.86-8.16-7.03-16.84-13.45-23.75-21.87-8.98-10.95-7.56-24.01,4.04-32.15,6.61-4.64,13.47-8.91,20.21-13.34-5.51-.99-11.39-.93-16.49,1.92-6.15,3.43-11.75,7.83-17.59,11.82-.74.51-1.47,1.04-2.2,1.56-.23-.09-.46-.19-.68-.28Z"/>
        <path d="m224.63,12.55c1.46,7.92,4.73,13.54,12.1,16.22,3,1.09,5.93,2.63,8.55,4.45,1.9,1.31,3.45,3.28,4.82,5.19,5.3,7.39,11.5,13.87,18.32,19.88,4.99,4.39,7.79,10.18,8.1,17.57-2.88-.41-5.76-.6-8.53-1.25-8.69-2.03-15.28-7.99-22.74-12.32-3.78-2.19-7.82-3.93-11.88-5.94-.77,3.27-1.37,5.84-1.88,8.02,3.85,1.36,7.49,2.79,11.22,3.92,4.08,1.25,4.8,4.23,4.59,8.21-1.12-.14-2.17-.31-3.22-.4-4.9-.45-9.81-1.32-14.7-1.21-6.58.14-9.77,5.54-7.4,12.19,6.24-1.01,12.53-2.17,18.86-3.03,5.44-.74,10.96-1.88,16.27.76.22.11.42.29,1.1.77-3.11.76-5.82,1.39-8.52,2.1-5.43,1.43-10.86,2.85-16.26,4.37-4.89,1.38-8.58,4.49-11.78,8.33-3.48,4.18-7.31,7.87-13.63,7.57.23-6.52.51-13.03,2.65-19.28,3.08-8.97,6.36-17.86,9.42-26.84,1.79-5.25,2.98-10.62,1.18-16.16-1.16-3.58-2.05-4.69-5.79-7.3-5.58,4.25-5.04,11.04-6.95,17.21-5.35-.86-10.68-1.61-15.97-2.6-2.04-.38-3.36-.07-4.72,1.67-3.39,4.32-7.04,8.44-10.57,12.62-9.52-7.16-9.28-14.11-3.34-23.47,2.45-3.86,6.26-6.95,9.76-10.04,3.22-2.84,7.08-2.57,10.95-1.11,2.4.91,4.84,1.75,7.33,2.39,1.75.45,2.82-.45,4.06-1.95,5.54-6.73,6.25-14.94,7.4-22.99.36-2.51,1.55-3.75,3.66-4.62,6.88-2.84,14.09-3,21.23-1.93,10.64,1.59,21.22,1.68,31.91.61,7.95-.8,15.92-.75,23.75,1.66,3.67,1.13,7.53,1.96,11.35,2.21,2.84.19,5.98-.23,8.59-1.33,5.17-2.17,9.62-1.58,14.18,2.23-3.01,1.7-5.92,3.35-9.53,5.4,2.88,3.48,5.25,7.27,8.48,10.06,5.35,4.63,11.2,8.69,16.92,12.87,6.93,5.07,11.5,11.93,14.6,19.71,5.55,13.94,10.79,28.01,16.14,42.04,5.62,14.74,5.86,29.72,2.63,45.05-3.63,17.27-6.58,34.67-10.16,51.95-1.2,5.8-3.42,11.39-5.17,17.08-.43-.02-.85-.04-1.28-.06-.42-2.87-1.28-5.75-1.19-8.6.35-11.3,1.09-22.58,1.48-33.88.19-5.59-.03-11.19-.13-16.78-.01-.79-.35-1.58-.57-2.54-5.67.53-11.2,1.05-17.65,1.66,1.48-2.2,2.45-3.9,3.67-5.4,2.02-2.49,4.43-4.7,6.26-7.32,2.71-3.89,1.07-8.34,1.09-12.59.01-2.15.07-4.43.78-6.41,1.81-5.02,3.98-9.91,6.04-14.84,2.73-6.52.96-12.91-.82-19.16-4.09-14.32-13.01-25.23-24.83-33.95-3.11-2.3-6.1-4.87-9.51-6.6-7.16-3.63-10.82-9.61-13.15-16.93-1.45-4.55-3.1-9.21-7.52-11.89-1.72-1.04-3.76-1.56-6.07-2.48-.22,5.02-.42,9.39-.61,13.76-.26.21-.53.42-.79.64-1.64-1.9-3.36-3.74-4.91-5.71-1.82-2.32-3.34-4.88-5.27-7.08-1.24-1.41-2.84-2.69-4.54-3.45-3.91-1.74-5.76-.82-7.32,3.08-.86,2.14-1.76,4.26-2.65,6.39-.1.25-.29.45-.47.72-7.02-1.57-12.03-8.03-19.91-8.13-.39,5.03-.76,9.93-1.15,15.01-4.7-.77-7.99-3.52-11.19-6.44-3.34-3.04-6.66-6.1-10.15-8.96-1.3-1.07-3.05-1.59-5.02-2.57Z"/>
        <path d="m319.92,148.24c-4.09-.75-6.54-2.72-8.49-5.32-1.99-2.65-3.94-5.35-5.67-8.18-3.03-4.96-7.12-8.64-12.87-9.64-6.75-1.18-13.6-1.8-20.42-2.54-2.07-.22-3.7.7-4.74,2.67-.98,1.87-2.36,3.56-3.23,5.47-2.56,5.63-7.76,8.8-11.96,12.84-3.87,3.72-4.19,9.24-1.32,13.35,2.94,4.21,6.51,7.98,9.82,11.93,2.62,3.13,4.91,6.42,5.42,11.11-3.06-2.1-5.83-3.99-8.59-5.9-11.08-7.66-22.26-15.16-33.15-23.08-3.21-2.33-5.58-5.8-8.32-8.77-1.86-2.01-3.68-4.06-6.11-5.78,2.05,8.27,4.1,16.54,6.25,25.23-6.4-1.85-11.26-4.98-14.14-10.63-2.38-4.68-4.59-9.45-7.1-14.62-1.19,1.35-2.51,2.41-3.27,3.78-4.77,8.58-12.46,13.87-20.6,18.74-6.96,4.16-13.87,8.41-20.77,12.66-5.52,3.4-7.94,9.33-11.56,14.28-2.26,3.08-4.7,6.04-7.44,8.89-1.64-4.77-1.17-9.3.94-13.56,1.75-3.54,3.85-6.92,5.97-10.26,3.17-4.98,6.49-9.86,8.09-15.65,1.3-4.69,4.74-6.8,9.23-7.62,4.07-.75,8.13-1.55,12.22-2.18,3.37-.51,5.88-2.28,7.47-5.13,2.62-4.72,6.23-8.4,10.73-11.29,2.95-1.9,4.57-4.74,5.29-8.11,1.18-5.54,1.62-11.04-.39-16.55-2.09-5.76-6.33-9.48-11.86-11.08-7.4-2.14-15.09-3.24-22.59-5.02-4.72-1.12-9.33-2.67-14.78-4.26,1.37-1.21,1.95-1.84,2.64-2.31,10.29-7.08,21.08-9.34,32.79-3.55,4.43,2.19,8.96,4.15,13.69,5.82-3.34-3.64-6.67-7.29-10.38-11.33,1.64-1.03,3.12-2.19,4.79-2.95,4.32-1.96,8.52-4.37,13.67-3.23,1.46.32,2.48.5,2.57,2.09.22,4.12.89,8.3.46,12.36-.7,6.45.23,12.66,1.46,18.89,1.39,7.04,2.9,14.05,4.24,21.1.34,1.77.79,2.71,2.89,2.75,5.59.1,9.91,3.07,13.85,6.71,1.14,1.06,2.35,2.05,3.86,3.36-1.05-6.72-2.07-13-2.99-19.31-.11-.76.04-1.94.54-2.36,3.97-3.29,7.94-6.6,12.16-9.55,2.01-1.41,4.57-2.05,6.87-3.04.14.21.28.42.43.62-1.66,3.35-3.37,6.67-4.97,10.05-1.79,3.78-3.21,7.66-2.03,11.95.17.61.46,1.2.78,1.75,1.19,2.08,2.46,2.87,5.09,1.62,4.41-2.11,7.08-5.37,7.58-10.06.48-4.55,2.67-7.51,7-9.46,1.3,2.7,2.54,5.44,3.96,8.09.33.62,1.39,1.38,1.95,1.26,5.39-1.12,10.74-2.42,16.29-3.7-2.2-5.09-4.28-9.9-6.51-15.06,7.93-1.3,14.25.79,19.81,5.14,10.23,8.01,16.18,18.97,20.54,30.89,1.82,4.97,3.18,10.1,4.92,15.68Z"/>
        <path d="m115.88,6.67c-1.66,7.41-2.88,14.5-4.94,21.33-.87,2.88-3.08,5.75-5.44,7.73-6.93,5.84-13.53,11.94-18.98,19.22-8.06,10.75-12.32,22.93-13.87,36.18-1.19,10.21-2.65,20.4-3.74,30.62-.53,4.94-.53,9.93-.68,14.9-.09,3.12-.02,6.24-.02,9.36-.28.11-.57.22-.85.33-3.99-3.96-7.97-7.93-12.4-12.34-.71,1.76-1.36,2.94-1.67,4.21-2.83,11.53-5.48,23.1-8.43,34.6-1.98,7.71-4.65,15.26-9.93,21.37-2.07,2.4-5.08,4.32-8.04,5.56-5.36,2.25-11.12-3.63-10.02-9.74,1.39-7.7,6.44-13.35,10.68-19.44,2.36-3.4,4.94-6.66,7.58-9.85,4.79-5.8,5.99-12.84,6.37-19.91.59-10.86.57-21.76.73-32.64.17-11.71,4.24-22.12,10.47-31.81,9.49-14.75,19.95-28.76,31.78-41.74,2.44-2.68,4.19-6.02,6.05-9.18.34-.58-.07-2.03-.62-2.61-1.39-1.45-3.18-2.52-4.6-3.95-1.23-1.23-1.57-2.68.19-3.93,4.04-2.87,8.06-5.76,12.08-8.65,3.44-2.48,7.19-.52,10.78-.68,2.38-.11,4.81.65,7.52,1.06Z"/>
        <path d="m193.12,452.34c-4.98-1.63-6.62-5.47-7.15-9.47-.79-5.91-.9-11.92-1.08-17.89-.06-1.96-.57-2.71-2.58-2.96-15.83-1.95-27.84-9.9-36.61-23.67,2.74-.2,5.23-.48,7.72-.54,6.45-.16,12.64-1.54,18.51-4.11,6.36-2.79,9.24-8.07,9.95-14.8.41-3.92,1.01-7.83,1.68-11.72.74-4.33,4.53-5.79,7.76-7.64.39-.22,2.14.79,2.3,1.47,1.71,7.04,4.44,13.88,3.9,21.36-.87,12.12,1.5,24.02,2.55,36.02.76,8.7.77,17.55-2.29,25.95-1.04,2.86-3.08,5.36-4.65,8.01Z"/>
        <path d="m277.08,338.25c2.36-7.57,4.64-15.03,7.01-22.47,2.27-7.1,1.35-14-1.37-20.71-2.8-6.91-5.63-13.83-8.85-20.55-2.9-6.07-3.4-12.38-3.06-18.88.27-5.05.73-10.08,1.12-15.25,1.42.2,2.82.21,4.1.61,4.61,1.43,5.98-.34,6.23-4.64.38-6.39.16-12.86-.4-19.24-.56-6.37-1.85-12.67-2.96-19.91,1.08,1.17,1.67,1.73,2.16,2.37,8.17,10.47,11.3,22.83,12.83,35.64,1.19,9.94,1.99,19.94,2.39,29.94.35,8.82.43,17.72-.3,26.5-.92,11.05-2.49,22.08-4.34,33.02-1.41,8.38-7.39,13.45-14.57,13.57Z"/>
        <path d="m74.16,477.89c-5.21-1.6-9.83-2.84-14.31-4.44-6.14-2.19-7.85-7.18-6.73-13.52,1.12-6.37,3.45-12.55,5.56-18.71,3.7-10.79,7.59-21.52,11.49-32.24,5.28-14.54,10.61-29.06,15.99-43.56,2.75-7.41,5.62-14.79,8.55-22.13.35-.89,1.39-1.51,2.11-2.25.67.84,1.72,1.58,1.95,2.52,2.47,10.29,1.03,20.44-2.52,30.1-4.96,13.47-10.62,26.68-16.14,39.93-4.22,10.13-7.15,20.54-7.01,31.58.11,8.06.73,16.12,1.06,24.18.11,2.7.02,5.41.02,8.53Z"/>
        <path d="m142.06,103.3c.16-2.5,1.32-3.61,3.59-4,4.7-.8,9.38-2.7,14.02-2.54,6.26.22,12.49,1.88,18.69,3.13.74.15,1.74,1.63,1.72,2.46-.41,13.65-4.32,26.24-11.88,37.64-.36.55-1.56,1.03-2.17.85-2.36-.71-5.07-1.17-6.85-2.67-5.17-4.38-11.24-5.7-17.63-6.09-5.26-.32-10.01-1.93-14.68-4.27-5.86-2.95-12.17-5.25-18.56-2.37-4.1,1.85-7.56,5.12-11.35,7.7-1.78,1.21-3.65,2.28-5.66,3.19,1.88-5.85,5.38-10.55,10-14.24,7.48-5.97,16.34-9.39,25.43-13.39.21,1.67.35,2.72.47,3.78.34,2.91,1.59,5.16,4.71,5.65,11.4,1.79,22.23-.65,33.63-4.36-7.12-6.36-16.08-6.6-23.49-10.48Z"/>
        <path d="m211.25,367.4c4.57,1.03,6.45,4.2,7.96,7.75,1.68,3.96,3.08,8.09,5.2,11.81,1.31,2.31,3.51,4.27,5.66,5.92,4.32,3.31,7.16,7.42,7.71,12.84.66,6.47,4.22,9.78,10.5,10.91,3.16.57,6.17,1.92,9.23,2.9-3.86,10.25-11.1,14.55-20.95,15.51-8.04.78-14.88-1.53-20.78-6.84-4.65-4.19-6.25-9.9-6.17-15.75.12-8.96,1.2-17.91,1.6-26.87.26-5.94.05-11.89.05-18.18Z"/>
        <path d="m92.69,273.37c-4.86-1.87-7.51-5.9-9.94-10.2-7.22-12.78-10.81-26.72-13.22-41.05-1.07-6.34-2.53-12.63-3.26-19.01-.56-4.93-.3-9.96-.33-14.94-.02-2.58.3-5.17.15-7.74-.51-9.02,1.13-17.65,4.94-25.78,3.69-7.87,4.27-16.28,5.04-24.7.19-2.07.82-4.1,1.24-6.14,2.12-.13,3.17.46,3.29,2.53.2,3.29.8,6.57.87,9.87.08,3.93,1.6,6.86,4.82,9.07,1.72,1.18,3.25,2.62,5.02,4.07-10.26,9.51-13.58,21.69-14.79,34.57-2.23,23.8,1.57,46.69,10.78,68.79,2.7,6.48,4.29,13.43,6.39,20.16-.33.17-.67.34-1,.52Z"/>
        <path d="m81.59,86.85c-.82-11.53,3.33-20.96,10.45-29.33,7.45-8.76,14.65-17.74,22.1-26.5,2.37-2.79,5.05-5.39,7.91-7.68,4.97-3.98,13.95-.99,15.23,5.29.4,1.98-1.16,4.84-2.66,6.59-2.18,2.54-4.94,4.71-7.76,6.55-11.94,7.78-23.25,16.31-32.5,27.24-2.78,3.28-4.83,7.17-7.32,10.71-1.72,2.45-3.62,4.77-5.44,7.14Z"/>
        <path d="m196.47,184.53c3.53-1.41,6.84-3.45,10.36-3.94,3.42-.48,7.15.25,10.58,1.1,9.08,2.25,16.55,7.55,23.36,13.68,8.79,7.92,15.8,17.21,20.11,28.36.15.39.25.8.51,1.66-6.1-3.39-10.52-7.7-13.77-13.36-.85-1.49-2.6-2.95-4.23-3.42-6.35-1.84-12.79-3.43-19.25-4.81-4.93-1.05-8.61-3.22-9.65-8.49-.43-2.18-1.73-2.55-3.75-2.57-2.45-.02-4.92-.49-7.34-.96-3.86-.75-5.83-3.4-6.92-7.24Z"/>
        <path d="m293.29,164.73c-9.47.5-18.37-3.44-27.33-7.04-.55-.22-1.12-1.34-1.07-1.99.41-5.49,1.02-10.96,1.44-16.45.17-2.18.93-3.37,3.24-3.89,6.1-1.39,12.12-3.1,18.2-4.56.8-.19,1.98.07,2.62.58,4.69,3.69,9.26,7.55,13.95,11.24,1.29,1.02,1.55,1.98,1.12,3.51-1.42,5.04-2.85,10.09-4.01,15.2-.54,2.37-1.68,3.44-4.03,3.4-1.2-.02-2.4,0-4.12,0Zm2.25-21.51c-2.47-4.2-6.64-5.25-11.02-6.52.27,1.6.5,2.91.73,4.29,1.05-.21,1.84-.37,2.75-.55.65,1.38,1.25,2.67,1.81,3.84-4.2,0-8.15.12-12.09-.04-3.3-.13-4.35,2.03-5.47,4.48-1.14,2.5-.15,3.94,1.96,5.15,1.03.59,1.94,1.4,2.89,2.13,6.36,4.91,12.13,5.16,19.31.59-5-3.48-11.66-1.23-16.69-5.06,5.57-2.73,11.92-3.1,15.81-8.31Z"/>
        <path d="m120.95,163.22c-7.86.03-12.59-4.5-15.94-10.91-1.14-2.19-1.66-4.7-2.8-6.89-2.1-4.01,0-6.48,2.85-8.77.41-.33.9-.63,1.4-.78,3.57-1.06,7.26-1.81,10.72-3.15,7.11-2.75,13.24-.88,18.65,3.78,2.98,2.57,5.48,5.7,8.04,8.72.47.55.45,1.9.14,2.67-3.38,8.33-10.1,12.57-18.43,14.72-1.5.39-3.09.41-4.64.6Zm-5.61-22.48c4.67,3.74,8.93,7.16,13.2,10.58-.16.25-.33.51-.49.76-5.12-.93-10.24-2.68-15.5-.43,2.48,4.49,4.13,5.37,8.82,4.74,5.7-.77,10.31-3.58,14.25-7.57-2.02-6.52-5.53-10.71-9.88-11.08,1.17,2.36,2.18,4.38,3.3,6.63-4.44-.78-9.67.82-11.36-5.34-.86.63-1.44,1.05-2.35,1.71Z"/>
    </g>
    <g class="cls-4">
        <path d="m632.6,480.75V203.75c0-44.92,14.06-83.03,42.2-114.34,30.85-34.48,72.14-51.73,123.87-51.73,46.28,0,84.39,13.17,114.34,39.47,34.48,30.4,51.73,74.18,51.73,131.36v272.24h-136.8v-125.91h-38.79v-117.06h38.79v-43.56c0-9.53-2.84-16.9-8.51-22.12-5.68-5.21-12.59-7.83-20.76-7.83s-15.09,2.62-20.76,7.83c-5.68,5.22-8.51,12.59-8.51,22.12v286.53h-136.8Z"/>
        <path d="m1143.72,480.75v-177.45c0-8.68-2.16-15.41-6.47-20.21-4.32-4.8-9.19-7.2-14.63-7.2-5.9,0-11.46,2.63-16.67,7.88-5.22,5.25-7.83,11.76-7.83,19.52v177.45h-125.23v-185.8c0-42.64,14.06-75.55,42.2-98.69,24.04-19.96,53.99-29.95,89.84-29.95,21.78,0,41.96,3.74,60.57,11.23,18.6,7.49,31.99,17.81,40.16,30.97,11.79-13.12,27.11-23.44,45.94-30.95,18.82-7.5,38.22-11.25,58.19-11.25,34.48,0,63.3,9.8,86.44,29.39,26.31,22.33,39.47,54.01,39.47,95.02v190.02h-127.27v-182.25c0-6.85-1.82-12.33-5.45-16.44-3.64-4.1-7.72-6.17-12.25-6.17-5.45,0-10.1,2.86-13.95,8.57-3.86,5.71-5.78,13.59-5.78,23.63v172.66h-127.27Z"/>
        <path d="m1614.69,480.75v-177.45c0-8.68-2.16-15.41-6.47-20.21-4.32-4.8-9.19-7.2-14.63-7.2-5.9,0-11.46,2.63-16.67,7.88-5.22,5.25-7.83,11.76-7.83,19.52v177.45h-125.23v-185.8c0-42.64,14.06-75.55,42.2-98.69,24.04-19.96,53.99-29.95,89.84-29.95,21.78,0,41.96,3.74,60.57,11.23,18.6,7.49,31.99,17.81,40.16,30.97,11.79-13.12,27.11-23.44,45.94-30.95,18.82-7.5,38.22-11.25,58.19-11.25,34.48,0,63.3,9.8,86.44,29.39,26.31,22.33,39.47,54.01,39.47,95.02v190.02h-127.27v-182.25c0-6.85-1.82-12.33-5.44-16.44-3.64-4.1-7.72-6.17-12.25-6.17-5.45,0-10.1,2.86-13.95,8.57-3.86,5.71-5.79,13.59-5.79,23.63v172.66h-127.27Z"/>
        <path d="m1916.86,71.71c0-21.32,7.03-37.77,21.1-49.34,14.06-11.57,31.31-17.36,51.72-17.36s36.64,5.9,51.39,17.7c14.74,11.8,22.12,28.14,22.12,49v3.4c0,21.78-7.6,39.13-22.8,52.07-15.21,12.93-32.56,19.4-52.07,19.4s-35.39-6.35-49-19.06c-14.97-14.06-22.46-32.67-22.46-55.81Zm4.76,409.04V174.48h129.99v306.27h-129.99Z"/>
        <path d="m2068.63,480.75v-193.97c0-35.84,15.2-64.66,45.6-86.44,27.67-19.5,61.25-29.27,100.73-29.27s75.31,9.99,103.45,29.95c31.75,22.69,47.64,52.86,47.64,90.52v189.21h-131.35v-181.04c0-6.35-1.94-11.23-5.79-14.63-3.86-3.4-8.06-5.1-12.59-5.1-5,0-9.99,2.04-14.97,6.13-5,4.08-7.49,8.62-7.49,13.61v181.04h-125.23Z"/>
        <path d="m2573.63,360.28v120.47l-40.84,2.72c-46.28,0-84.17-14.52-113.66-43.56-29.5-29.03-44.24-67.6-44.24-115.7,0-51.27,16.56-91.2,49.68-119.79,30.85-26.77,71.23-40.16,121.15-40.16,54.45,0,98.01,18.83,130.67,56.49,29.03,33.58,43.56,73.5,43.56,119.78v140.2h-126.59v-156.54c0-14.52-4.66-25.52-13.95-33.01-9.31-7.49-20.53-11.23-33.69-11.23-12.25,0-22.92,3.4-31.99,10.21-9.08,6.81-13.61,16.57-13.61,29.27,0,14.97,3.74,27.12,11.23,36.41,7.49,9.31,17.36,13.95,29.61,13.95,9.98,0,20.87-3.17,32.67-9.53Z"/>
        <path d="m2968.34,479.79V174.89h96.21v304.9h-96.21Z"/>
        <path d="m3076.04,479.79v-88.55h67.49c7.34,0,13.8-1.11,19.38-3.35,5.58-2.23,8.38-5.58,8.38-10.05,0-1.91-.32-3.51-.96-4.79-1.91-4.14-5.11-7.49-9.57-10.05-28.72-20.42-48.67-37.17-59.83-50.26-16.6-19.46-24.89-40.21-24.89-62.22l-.96-3.35c0-26.48,12.76-46.11,38.29-58.87,18.19-8.93,38.61-13.4,61.27-13.4h92.86v82.33h-64.14c-7.34,0-13.25,1.12-17.71,3.35-4.47,2.24-6.7,4.95-6.7,8.14,0,3.52,3.51,7.82,10.53,12.92,34.46,26.49,54.09,41.96,58.87,46.43,19.46,19.15,29.2,39.09,29.2,59.83v10.53c0,26.17-11.33,46.75-33.98,61.75-19.79,13.09-43.88,19.62-72.28,19.62h-95.25Z"/>
        <path d="m3284.73,479.79v-208.69c0-23.29,8.14-45.63,24.41-67.01,20.1-26.16,46.43-39.25,78.98-39.25h6.7c30.95,0,57.6,9.09,79.94,27.28,24.57,20.1,36.86,46.43,36.86,78.98v9.09c0,29.68-8.62,54.41-25.85,74.19-20.1,23.3-49.3,34.94-87.59,34.94l-6.7-1.44v-85.68l3.35.96c7.97,0,14.36-2.55,19.15-7.66,4.79-5.1,7.18-10.84,7.18-17.23,0-5.74-1.6-10.69-4.79-14.84-3.19-4.14-8.14-6.22-14.84-6.22-9.89,0-16.36,2.71-19.38,8.14-3.04,5.43-4.55,15.32-4.55,29.68v184.76h-92.86Z"/>
        <rect x="2842.29" y="171.08" width="13.18" height="312.39"/>
    </g>

</svg>